<svg width="32" height="32" viewBox="0 0 32 32" fill="none" xmlns="http://www.w3.org/2000/svg">
  <defs>
    <linearGradient id="logoGradient" x1="0%" y1="0%" x2="100%" y2="100%">
      <stop offset="0%" style="stop-color:#3B82F6;stop-opacity:1" />
      <stop offset="50%" style="stop-color:#8B5CF6;stop-opacity:1" />
      <stop offset="100%" style="stop-color:#EC4899;stop-opacity:1" />
    </linearGradient>
  </defs>
  <rect width="32" height="32" rx="8" fill="url(#logoGradient)"/>
  <path d="M8 12C8 9.79086 9.79086 8 12 8H20C22.2091 8 24 9.79086 24 12V20C24 22.2091 22.2091 24 20 24H12C9.79086 24 8 22.2091 8 20V12Z" fill="white" fill-opacity="0.2"/>
  <path d="M12 10C10.8954 10 10 10.8954 10 12V20C10 21.1046 10.8954 22 12 22H20C21.1046 22 22 21.1046 22 20V12C22 10.8954 21.1046 10 20 10H12Z" fill="white"/>
  <path d="M14 14C14 13.4477 14.4477 13 15 13H17C17.5523 13 18 13.4477 18 14V16C18 16.5523 17.5523 17 17 17H15C14.4477 17 14 16.5523 14 16V14Z" fill="url(#logoGradient)"/>
  <path d="M14 18C14 17.4477 14.4477 17 15 17H17C17.5523 17 18 17.4477 18 18V20C18 20.5523 17.5523 21 17 21H15C14.4477 21 14 20.5523 14 20V18Z" fill="url(#logoGradient)"/>
</svg>
