<svg id="Layer_1" data-name="Layer 1" xmlns="http://www.w3.org/2000/svg" viewBox="0 0 24 24"><path d="M6,19.5H8.55054a3.48313,3.48313,0,0,0,6.89892,0H18a2.49976,2.49976,0,0,0,2-4,2.51792,2.51792,0,0,1-.5-1.5V9.29346a7.70912,7.70912,0,0,0-7.26953-7.79A7.50008,7.50008,0,0,0,4.5,9v5A2.51574,2.51574,0,0,1,4,15.5a2.50012,2.50012,0,0,0,2,4Zm6,2a2.504,2.504,0,0,1-2.4494-2h4.89886A2.50374,2.50374,0,0,1,12,21.5ZM4.7998,16.1001A3.51866,3.51866,0,0,0,5.5,14V9a6.49988,6.49988,0,0,1,6.498-6.5c.06738,0,.13476.001.20215.00342a6.70243,6.70243,0,0,1,6.2998,6.79V14a3.525,3.525,0,0,0,.69922,2.09961A1.4995,1.4995,0,0,1,18,18.5H6a1.49995,1.49995,0,0,1-1.2002-2.3999Z"/></svg>