<svg id="Layer_1" data-name="Layer 1" xmlns="http://www.w3.org/2000/svg" viewBox="0 0 24 24"><path d="M5.18689,5.89392A7.5125,7.5125,0,0,0,4.5,9v5A2.51792,2.51792,0,0,1,4,15.5a2.49976,2.49976,0,0,0,2,4H8.55054a3.48313,3.48313,0,0,0,6.89892,0H18.793l1.85351,1.85352a.5.5,0,0,0,.707-.707l-18-18a.5.5,0,0,0-.707.707ZM12,21.5a2.50374,2.50374,0,0,1-2.44946-2h4.89892A2.50374,2.50374,0,0,1,12,21.5ZM5.5,9a6.43311,6.43311,0,0,1,.442-2.35095L17.793,18.5H6a1.4995,1.4995,0,0,1-1.19922-2.40039A3.525,3.525,0,0,0,5.5,14ZM7.32373,4.49561l-.70666-.70667c.05468-.0564.10363-.11676.16027-.17175a7.46517,7.46517,0,0,1,5.45313-2.11377A7.70912,7.70912,0,0,1,19.5,9.29346V14a2.51792,2.51792,0,0,0,.5,1.5,2.47488,2.47488,0,0,1,.41534,2.08722l-.97668-.97669a1.50524,1.50524,0,0,0-.23944-.51092A3.525,3.525,0,0,1,18.5,14V9.29346a6.70231,6.70231,0,0,0-6.29883-6.79C12.13379,2.501,12.06543,2.5,11.999,2.5A6.45036,6.45036,0,0,0,7.47363,4.335C7.42065,4.38641,7.37469,4.44275,7.32373,4.49561Z"/></svg>