<svg id="Layer_1" data-name="Layer 1" xmlns="http://www.w3.org/2000/svg" viewBox="0 0 24 24"><path d="M17,1.5H7A2.50263,2.50263,0,0,0,4.5,4V20.99805a1.48512,1.48512,0,0,0,.87305,1.36279,1.50993,1.50993,0,0,0,.63086.13965,1.48605,1.48605,0,0,0,.97168-.36328l4.70019-4.02735a.49439.49439,0,0,1,.64942.00049l4.69921,4.02637A1.49946,1.49946,0,0,0,19.5,20.99805V4A2.50263,2.50263,0,0,0,17,1.5Zm1.5,19.49805a.4995.4995,0,0,1-.8252.37939l-4.69824-4.02637a1.49063,1.49063,0,0,0-1.95215-.00048L6.3252,21.37793A.49982.49982,0,0,1,5.5,20.99805V4A1.50164,1.50164,0,0,1,7,2.5H17A1.50164,1.50164,0,0,1,18.5,4Z"/></svg>