<svg id="Layer_1" data-name="Layer 1" xmlns="http://www.w3.org/2000/svg" viewBox="0 0 24 24"><path d="M12,15.5A3.5,3.5,0,1,0,8.5,12,3.50424,3.50424,0,0,0,12,15.5Zm0-6A2.5,2.5,0,1,1,9.5,12,2.50294,2.50294,0,0,1,12,9.5ZM2.6167,13.43115A1.49926,1.49926,0,0,0,2.06689,15.48l1.95264,3.38281a1.50317,1.50317,0,0,0,2.04932.54883l1.66015-.959a.4967.4967,0,0,1,.50684.02832A.48957.48957,0,0,1,8.5,18.898V21A1.50164,1.50164,0,0,0,10,22.5h4A1.50164,1.50164,0,0,0,15.5,21V18.898a.497.497,0,0,1,.2749-.42334.492.492,0,0,1,.4961-.022l1.66064.959a1.50162,1.50162,0,0,0,2.04883-.54932l1.95215-3.38183a1.49937,1.49937,0,0,0-.54883-2.04932l-1.62012-.93554a.56989.56989,0,0,1-.28125-.50391.56265.56265,0,0,1,.28125-.48731l1.61963-.93554A1.49926,1.49926,0,0,0,21.93311,8.52L19.98047,5.1377a1.50325,1.50325,0,0,0-2.04932-.54932l-1.66015.959a.50118.50118,0,0,1-.50684-.02832.48957.48957,0,0,1-.26416-.417V3A1.50164,1.50164,0,0,0,14,1.5H10A1.50164,1.50164,0,0,0,8.5,3V5.10205a.54706.54706,0,0,1-.771.44531l-1.66064-.959a1.50333,1.50333,0,0,0-2.04883.54932L2.06738,8.51953a1.49937,1.49937,0,0,0,.54883,2.04932l1.6377.9458a.54272.54272,0,0,1,.24707.49219.53473.53473,0,0,1-.24707.47851Zm2.13721-2.78271-1.63819-.9458A.49926.49926,0,0,1,2.93311,9.02L4.88574,5.6377a.49856.49856,0,0,1,.68311-.18311l1.66015.959A1.5437,1.5437,0,0,0,9.5,5.10205V3a.50034.50034,0,0,1,.5-.5h4a.50034.50034,0,0,1,.5.5V5.10205a1.544,1.544,0,0,0,2.271,1.31152l1.65966-.959a.50157.50157,0,0,1,.6836.18311l1.95312,3.38281a.49915.49915,0,0,1-.18359.68213l-1.62012.93554a1.57752,1.57752,0,0,0,0,2.72364l1.62012.93554h.00049a.49926.49926,0,0,1,.18261.68262l-1.95263,3.38184a.4988.4988,0,0,1-.68311.18359l-1.66015-.959A1.5437,1.5437,0,0,0,14.5,18.898V21a.50034.50034,0,0,1-.5.5H10a.50034.50034,0,0,1-.5-.5V18.898a1.48287,1.48287,0,0,0-.77393-1.28857,1.55368,1.55368,0,0,0-.77929-.21485,1.43286,1.43286,0,0,0-.71778.1919l-1.65966.959a.50156.50156,0,0,1-.6836-.18311L2.93262,14.97949a.49915.49915,0,0,1,.18359-.68213l1.6377-.9458a1.59611,1.59611,0,0,0,0-2.70312Z"/></svg>