<svg id="Layer_1" data-name="Layer 1" xmlns="http://www.w3.org/2000/svg" viewBox="0 0 24 24"><path d="M5,21.5H19A2.50294,2.50294,0,0,0,21.5,19V5A2.50294,2.50294,0,0,0,19,2.5H5A2.50294,2.50294,0,0,0,2.5,5V19A2.50294,2.50294,0,0,0,5,21.5ZM3.5,5A1.50164,1.50164,0,0,1,5,3.5H19A1.50164,1.50164,0,0,1,20.5,5v7.5H16.7207a1.49922,1.49922,0,0,0-1.42334,1.02539l-.31543.94873A1.499,1.499,0,0,1,13.55859,15.5H10.44141a1.498,1.498,0,0,1-1.42286-1.02588l-.3164-.94873A1.49815,1.49815,0,0,0,7.2793,12.5H3.5Zm0,8.5H7.2793a.49881.49881,0,0,1,.47412.3418l.3164.94873A2.49682,2.49682,0,0,0,10.44141,16.5h3.11718a2.49788,2.49788,0,0,0,2.37207-1.70947l.31543-.94873A.49989.49989,0,0,1,16.7207,13.5H20.5V19A1.50164,1.50164,0,0,1,19,20.5H5A1.50164,1.50164,0,0,1,3.5,19Z"/></svg>