<svg id="Layer_1" data-name="Layer 1" xmlns="http://www.w3.org/2000/svg" viewBox="0 0 24 24"><path d="M6,21.5H18A2.50294,2.50294,0,0,0,20.5,19V10.5a4.52278,4.52278,0,0,0-1.7998-3.6001h-.00049L13.5,3a2.51378,2.51378,0,0,0-3,0L5.2998,6.8999A4.52278,4.52278,0,0,0,3.5,10.5V19A2.50294,2.50294,0,0,0,6,21.5Zm8.2002-1H9.7998v-4a2.2002,2.2002,0,0,1,4.4004,0ZM4.5,10.5A3.51817,3.51817,0,0,1,5.8999,7.69971L11.09961,3.7998a1.50985,1.50985,0,0,1,1.80078,0L18.1001,7.69971A3.51887,3.51887,0,0,1,19.5,10.5V19A1.50164,1.50164,0,0,1,18,20.5H15.2002v-4a3.2002,3.2002,0,0,0-6.4004,0v4H6A1.50164,1.50164,0,0,1,4.5,19Z"/></svg>