<svg id="Layer_1" data-name="Layer 1" xmlns="http://www.w3.org/2000/svg" viewBox="0 0 24 24"><path d="M12,1.5A10.5,10.5,0,1,0,22.5,12,10.51211,10.51211,0,0,0,12,1.5Zm0,1a9.45065,9.45065,0,0,1,6.344,2.449L15.51691,7.77606a5.48445,5.48445,0,0,0-7.03382,0L5.656,4.949A9.45065,9.45065,0,0,1,12,2.5ZM16.5,12A4.5,4.5,0,1,1,12,7.5,4.50491,4.50491,0,0,1,16.5,12Zm-14,0A9.45065,9.45065,0,0,1,4.949,5.656L7.77606,8.48309a5.48445,5.48445,0,0,0,0,7.03382L4.949,18.344A9.45065,9.45065,0,0,1,2.5,12ZM12,21.5a9.45065,9.45065,0,0,1-6.344-2.449l2.82708-2.82709a5.48445,5.48445,0,0,0,7.03382,0L18.344,19.051A9.45065,9.45065,0,0,1,12,21.5Zm7.051-3.156-2.82709-2.82708a5.48445,5.48445,0,0,0,0-7.03382L19.051,5.656a9.44145,9.44145,0,0,1,0,12.688Z"/></svg>