<svg id="Layer_1" data-name="Layer 1" xmlns="http://www.w3.org/2000/svg" viewBox="0 0 24 24"><path d="M20,2.5H4A2.50231,2.50231,0,0,0,1.5,5V19A2.50231,2.50231,0,0,0,4,21.5H20A2.50231,2.50231,0,0,0,22.5,19V5A2.50231,2.50231,0,0,0,20,2.5ZM21.5,19A1.50164,1.50164,0,0,1,20,20.5H4A1.50164,1.50164,0,0,1,2.5,19V8.88287l8.21387,4.92865a2.49851,2.49851,0,0,0,2.57226,0L21.5,8.88287Zm0-11.2832-8.72754,5.2373a1.50193,1.50193,0,0,1-1.54492,0L2.5,7.7168V5A1.50164,1.50164,0,0,1,4,3.5H20A1.50164,1.50164,0,0,1,21.5,5Z"/></svg>