<svg id="Layer_1" data-name="Layer 1" xmlns="http://www.w3.org/2000/svg" viewBox="0 0 24 24"><path d="M15,21.5a.51788.51788,0,0,0,.1582-.02539l6-2A.501.501,0,0,0,21.5,19V3a.50064.50064,0,0,0-.6582-.47461L15,4.47266,9.1582,2.52539c-.01465-.00476-.03-.0003-.04486-.00372a.68379.68379,0,0,0-.22741,0c-.01459.00342-.02985-.001-.04413.00372l-6,2A.501.501,0,0,0,2.5,5V21a.50054.50054,0,0,0,.5.5.51788.51788,0,0,0,.1582-.02539L9,19.52734l5.8418,1.94727A.51788.51788,0,0,0,15,21.5Zm.5-16.13965,5-1.667V18.63965l-5,1.667Zm-7,13.2793-5,1.667V5.36035l5-1.667Zm6,1.667-5-1.667V3.69336l5,1.667Z"/></svg>