<svg id="Layer_1" data-name="Layer 1" xmlns="http://www.w3.org/2000/svg" viewBox="0 0 24 24"><path d="M16.17188,2.5H5A2.50263,2.50263,0,0,0,2.5,5V19A2.50263,2.50263,0,0,0,5,21.5H19A2.50231,2.50231,0,0,0,21.5,19V7.82812a2.48192,2.48192,0,0,0-.73242-1.76757L17.93945,3.23242A2.48192,2.48192,0,0,0,16.17188,2.5ZM9.5,3.5h5V8a.501.501,0,0,1-.5.5H10A.50065.50065,0,0,1,9.5,8Zm7,17h-9V15A1.50164,1.50164,0,0,1,9,13.5h6A1.50164,1.50164,0,0,1,16.5,15Zm4-12.67188V19A1.50164,1.50164,0,0,1,19,20.5H17.5V15A2.50231,2.50231,0,0,0,15,12.5H9A2.50263,2.50263,0,0,0,6.5,15v5.5H5A1.50164,1.50164,0,0,1,3.5,19V5A1.50164,1.50164,0,0,1,5,3.5H8.5V8A1.50164,1.50164,0,0,0,10,9.5h4A1.50164,1.50164,0,0,0,15.5,8V3.5h.67188a1.51063,1.51063,0,0,1,1.06054.43945l2.82813,2.82813A1.51063,1.51063,0,0,1,20.5,7.82812Z"/></svg>