<svg id="Layer_1" data-name="Layer 1" xmlns="http://www.w3.org/2000/svg" viewBox="0 0 24 24"><path d="M22.43018,9.3418a1.29451,1.29451,0,0,0-1.25049-.91016H15.49805a.49738.49738,0,0,1-.47754-.35059L13.25977,2.4248a1.31919,1.31919,0,0,0-2.51954,0L8.97949,8.08105a.49738.49738,0,0,1-.47754.35059H2.82031a1.314,1.314,0,0,0-.76855,2.37988l4.41308,3.18457a.50251.50251,0,0,1,.19.53711L4.92627,20.82812a1.31951,1.31951,0,0,0,2.06934,1.4004l4.70214-3.56641a.50244.50244,0,0,1,.6045,0l4.70214,3.56641a1.31935,1.31935,0,0,0,2.06885-1.40137l-1.72754-6.293a.50235.50235,0,0,1,.18946-.53809l4.41308-3.18457A1.29453,1.29453,0,0,0,22.43018,9.3418Zm-1.0669.65918L16.9502,13.18555a1.50627,1.50627,0,0,0-.56885,1.61328l1.72754,6.293a.31919.31919,0,0,1-.5.33984l-4.70215-3.56641a1.50541,1.50541,0,0,0-1.81348,0L6.39111,21.43164a.31935.31935,0,0,1-.50049-.33887l1.72852-6.29492a1.50642,1.50642,0,0,0-.56934-1.6123L2.63672,10.001a.31438.31438,0,0,1,.18359-.56934H8.502A1.49359,1.49359,0,0,0,9.93457,8.37793l1.76074-5.65625a.319.319,0,0,1,.60938,0l1.76074,5.65625a1.49359,1.49359,0,0,0,1.43262,1.05371h5.68164a.31438.31438,0,0,1,.18359.56934Z"/></svg>