<svg id="Layer_1" data-name="Layer 1" xmlns="http://www.w3.org/2000/svg" viewBox="0 0 24 24"><path d="M5,2.5A2.50263,2.50263,0,0,0,2.5,5V19A2.50263,2.50263,0,0,0,5,21.5H19A2.50263,2.50263,0,0,0,21.5,19V5A2.50263,2.50263,0,0,0,19,2.5ZM20.5,5V19A1.50164,1.50164,0,0,1,19,20.5H5A1.50164,1.50164,0,0,1,3.5,19V5A1.50164,1.50164,0,0,1,5,3.5H19A1.50164,1.50164,0,0,1,20.5,5ZM15.35352,9.64648a.49983.49983,0,0,1,0,.707l-4,4a.49984.49984,0,0,1-.707,0l-2-2a.5.5,0,0,1,.707-.707L11,13.293l3.64648-3.64649A.49983.49983,0,0,1,15.35352,9.64648Z"/></svg>