<svg id="Layer_1" data-name="Layer 1" xmlns="http://www.w3.org/2000/svg" viewBox="0 0 24 24"><path d="M9,1.5A5.5,5.5,0,1,0,14.5,7,5.50654,5.50654,0,0,0,9,1.5Zm0,10A4.5,4.5,0,1,1,13.5,7,4.50491,4.50491,0,0,1,9,11.5ZM1.5,22V20A4.50491,4.50491,0,0,1,6,15.5h6A4.50491,4.50491,0,0,1,16.5,20v2a.5.5,0,0,1-1,0V20A3.50424,3.50424,0,0,0,12,16.5H6A3.50424,3.50424,0,0,0,2.5,20v2a.5.5,0,0,1-1,0Zm13-10a.49971.49971,0,0,1,.5-.5,4.5,4.5,0,0,0,0-9,.5.5,0,0,1,0-1,5.5,5.5,0,0,1,0,11A.49971.49971,0,0,1,14.5,12Zm7,10V20A3.50424,3.50424,0,0,0,18,16.5a.5.5,0,0,1,0-1A4.50491,4.50491,0,0,1,22.5,20v2a.5.5,0,0,1-1,0Z"/></svg>