<svg id="Layer_1" data-name="Layer 1" xmlns="http://www.w3.org/2000/svg" viewBox="0 0 24 24"><path d="M3.5,7A5.5,5.5,0,1,0,9,1.5,5.50654,5.50654,0,0,0,3.5,7Zm10,0A4.5,4.5,0,1,1,9,2.5,4.50491,4.50491,0,0,1,13.5,7Zm3,13v2a.5.5,0,0,1-1,0V20A3.50424,3.50424,0,0,0,12,16.5H6A3.50424,3.50424,0,0,0,2.5,20v2a.5.5,0,0,1-1,0V20A4.50491,4.50491,0,0,1,6,15.5h6A4.50491,4.50491,0,0,1,16.5,20ZM22.35352,9.85352,20.207,12l2.14649,2.14648a.5.5,0,1,1-.707.707L19.5,12.707l-2.14648,2.14649a.5.5,0,0,1-.707-.707L18.793,12,16.64648,9.85352a.5.5,0,0,1,.707-.707L19.5,11.293l2.14648-2.14649a.5.5,0,0,1,.707.707Z"/></svg>